C:\Users\israe\Dropbox\PhDWork\ExperimentalData\subject1\100\P1S100W03_filtered35.mot
nRows=18
nColumns=28

name C:\Users\israe\Dropbox\PhDWork\ExperimentalData\subject1\100\P1S100W03_filtered35.mot
datacolumns 28
datarows 18
range 1.7620000000 1.7790000000
endheader
time	ground_force_1_vx	ground_force_1_vy	ground_force_1_vz	ground_force_1_px	ground_force_1_py	ground_force_1_pz	ground_moment_1_mx	ground_moment_1_my	ground_moment_1_mz	ground_force_2_vx	ground_force_2_vy	ground_force_2_vz	ground_force_2_px	ground_force_2_py	ground_force_2_pz	ground_moment_2_mx	ground_moment_2_my	ground_moment_2_mz	ground_force_3_vx	ground_force_3_vy	ground_force_3_vz	ground_force_3_px	ground_force_3_py	ground_force_3_pz	ground_moment_3_mx	ground_moment_3_my	ground_moment_3_mz
        1.7620000000	       13.7372880574	      425.5674044970	      -92.4936110071	        0.2000000000	        0.0000000000	       -0.9030000000	       47.5257304374	        6.5147665670	       32.2363625383	       -0.0000000000	        0.0000000000	        0.0000000000	        0.2000000000	        0.0000000000	       -0.3000000000	        0.0000000000	        0.0000000000	       -0.0000000000	        0.0000000000	        0.0000000000	       -0.0000000000	        0.2000000000	       -0.0000000000	        0.3030000000	       -0.0000000000	        0.0000000000	       -0.0000000000	
        1.7630000000	       14.3335710769	      415.3585977448	      -91.7977710095	        0.2000000000	        0.0000000000	       -0.9030000000	       46.5042281041	        6.3662941674	       31.4407487846	       -0.0000000000	        0.0000000000	        0.0000000000	        0.2000000000	        0.0000000000	       -0.3000000000	        0.0000000000	        0.0000000000	       -0.0000000000	        0.0000000000	        0.0000000000	       -0.0000000000	        0.2000000000	       -0.0000000000	        0.3030000000	       -0.0000000000	        0.0000000000	       -0.0000000000	
        1.7640000000	       14.8984362680	      404.9543147195	      -91.0701268251	        0.2000000000	        0.0000000000	       -0.9030000000	       45.4529438635	        6.2168394828	       30.6337151457	       -0.0000000000	        0.0000000000	        0.0000000000	        0.2000000000	        0.0000000000	       -0.3000000000	        0.0000000000	        0.0000000000	       -0.0000000000	        0.0000000000	        0.0000000000	       -0.0000000000	        0.2000000000	       -0.0000000000	        0.3030000000	       -0.0000000000	        0.0000000000	       -0.0000000000	
        1.7650000000	       15.4257474377	      394.3684101521	      -90.2974758878	        0.2000000000	        0.0000000000	       -0.9030000000	       44.3729717290	        6.0657995733	       29.8155630007	       -0.0000000000	        0.0000000000	        0.0000000000	        0.2000000000	        0.0000000000	       -0.3000000000	        0.0000000000	        0.0000000000	       -0.0000000000	        0.0000000000	        0.0000000000	       -0.0000000000	        0.2000000000	       -0.0000000000	        0.3030000000	       -0.0000000000	        0.0000000000	       -0.0000000000	
        1.7660000000	       15.9101683435	      383.6145026981	      -89.4653700388	        0.2000000000	        0.0000000000	       -0.9030000000	       43.2656765052	        5.9125054867	       28.9869297237	       -0.0000000000	        0.0000000000	        0.0000000000	        0.2000000000	        0.0000000000	       -0.3000000000	        0.0000000000	        0.0000000000	       -0.0000000000	        0.0000000000	        0.0000000000	       -0.0000000000	        0.2000000000	       -0.0000000000	        0.3030000000	       -0.0000000000	        0.0000000000	       -0.0000000000	
        1.7670000000	       16.3474714923	      372.7014030476	      -88.5590691819	        0.2000000000	        0.0000000000	       -0.9030000000	       42.1326542176	        5.7564186258	       28.1489695866	       -0.0000000000	        0.0000000000	        0.0000000000	        0.2000000000	        0.0000000000	       -0.3000000000	        0.0000000000	        0.0000000000	       -0.0000000000	        0.0000000000	        0.0000000000	       -0.0000000000	        0.2000000000	       -0.0000000000	        0.3030000000	       -0.0000000000	        0.0000000000	       -0.0000000000	
        1.7680000000	       16.7344781335	      361.6334570120	      -87.5645329959	        0.2000000000	        0.0000000000	       -0.9030000000	       40.9757502194	        5.5972025765	       27.3031323074	       -0.0000000000	        0.0000000000	        0.0000000000	        0.2000000000	        0.0000000000	       -0.3000000000	        0.0000000000	        0.0000000000	       -0.0000000000	        0.0000000000	        0.0000000000	       -0.0000000000	        0.2000000000	       -0.0000000000	        0.3030000000	       -0.0000000000	        0.0000000000	       -0.0000000000	
        1.7690000000	       17.0684699330	      350.4148921744	      -86.4691341472	        0.2000000000	        0.0000000000	       -0.9030000000	       39.7972005384	        5.4346171751	       26.4507452610	       -0.0000000000	        0.0000000000	        0.0000000000	        0.2000000000	        0.0000000000	       -0.3000000000	        0.0000000000	        0.0000000000	       -0.0000000000	        0.0000000000	        0.0000000000	       -0.0000000000	        0.2000000000	       -0.0000000000	        0.3030000000	       -0.0000000000	        0.0000000000	       -0.0000000000	
        1.7700000000	       17.3464300486	      339.0538334428	      -85.2620187356	        0.2000000000	        0.0000000000	       -0.9030000000	       38.5998354822	        5.2683680451	       25.5927538998	        0.0000000000	        0.0000000000	        0.0000000000	        0.2000000000	        0.0000000000	       -0.3000000000	        0.0000000000	        0.0000000000	       -0.0000000000	        0.0000000000	        0.0000000000	       -0.0000000000	        0.2000000000	       -0.0000000000	        0.3030000000	       -0.0000000000	        0.0000000000	       -0.0000000000	
        1.7710000000	       17.5648067706	      327.5647237523	      -83.9334800902	        0.2000000000	        0.0000000000	       -0.9030000000	       37.3870825143	        5.0980942923	       24.7297381847	        0.0000000000	        0.0000000000	        0.0000000000	        0.2000000000	        0.0000000000	       -0.3000000000	        0.0000000000	        0.0000000000	       -0.0000000000	        0.0000000000	        0.0000000000	       -0.0000000000	        0.2000000000	       -0.0000000000	        0.3030000000	       -0.0000000000	        0.0000000000	       -0.0000000000	
        1.7720000000	       17.7196030267	      315.9683592568	      -82.4738402482	        0.2000000000	        0.0000000000	       -0.9030000000	       36.1625399506	        4.9235148098	       23.8622119729	        0.0000000000	        0.0000000000	        0.0000000000	        0.2000000000	        0.0000000000	       -0.3000000000	       -0.0000000000	       -0.0000000000	        0.0000000000	        0.0000000000	        0.0000000000	       -0.0000000000	        0.2000000000	       -0.0000000000	        0.3030000000	       -0.0000000000	        0.0000000000	       -0.0000000000	
        1.7730000000	       17.8063516629	      304.2889641873	      -80.8732490041	        0.2000000000	        0.0000000000	       -0.9030000000	       34.9294022162	        4.7445103300	       22.9909641542	        0.0000000000	        0.0000000000	       -0.0000000000	        0.2000000000	        0.0000000000	       -0.3000000000	       -0.0000000000	       -0.0000000000	        0.0000000000	        0.0000000000	        0.0000000000	       -0.0000000000	        0.2000000000	       -0.0000000000	        0.3030000000	       -0.0000000000	        0.0000000000	       -0.0000000000	
        1.7740000000	       17.8203066320	      292.5512627048	      -79.1224264370	        0.2000000000	        0.0000000000	       -0.9030000000	       33.6902414001	        4.5610615365	       22.1170758474	        0.0000000000	        0.0000000000	       -0.0000000000	        0.2000000000	        0.0000000000	       -0.3000000000	       -0.0000000000	       -0.0000000000	        0.0000000000	       -0.0000000000	        0.0000000000	       -0.0000000000	        0.2000000000	       -0.0000000000	        0.3030000000	        0.0000000000	        0.0000000000	        0.0000000000	
        1.7750000000	       17.7569981666	      280.7803625218	      -77.2137285501	        0.2000000000	        0.0000000000	       -0.9030000000	       32.4472644769	        4.3731688415	       21.2417961365	        0.0000000000	        0.0000000000	       -0.0000000000	        0.2000000000	        0.0000000000	       -0.3000000000	       -0.0000000000	       -0.0000000000	        0.0000000000	       -0.0000000000	        0.0000000000	        0.0000000000	        0.2000000000	       -0.0000000000	        0.3030000000	        0.0000000000	       -0.0000000000	        0.0000000000	
        1.7760000000	       17.6127787940	      269.0032026144	      -75.1421262701	        0.2000000000	        0.0000000000	       -0.9030000000	       31.2028060275	        4.1808103061	       20.3666945446	        0.0000000000	        0.0000000000	       -0.0000000000	        0.2000000000	        0.0000000000	       -0.3000000000	       -0.0000000000	       -0.0000000000	        0.0000000000	       -0.0000000000	        0.0000000000	        0.0000000000	        0.2000000000	       -0.0000000000	        0.3030000000	        0.0000000000	       -0.0000000000	        0.0000000000	
        1.7770000000	       17.3853230981	      257.2492056355	      -72.9051877418	        0.2000000000	        0.0000000000	       -0.9030000000	       29.9595557762	        3.9839502936	       19.4939329002	        0.0000000000	        0.0000000000	       -0.0000000000	        0.2000000000	        0.0000000000	       -0.3000000000	       -0.0000000000	       -0.0000000000	        0.0000000000	       -0.0000000000	        0.0000000000	        0.0000000000	        0.2000000000	       -0.0000000000	        0.3030000000	        0.0000000000	       -0.0000000000	        0.0000000000	
        1.7780000000	       17.0739474319	      245.5503455248	      -70.5023079176	        0.2000000000	        0.0000000000	       -0.9030000000	       28.7204069939	        3.7825490631	       18.6263348814	        0.0000000000	        0.0000000000	       -0.0000000000	        0.2000000000	        0.0000000000	       -0.3000000000	       -0.0000000000	       -0.0000000000	        0.0000000000	       -0.0000000000	        0.0000000000	        0.0000000000	        0.2000000000	       -0.0000000000	        0.3030000000	        0.0000000000	       -0.0000000000	        0.0000000000	
        1.7790000000	       16.6794551914	      233.9416875193	      -67.9346136072	        0.2000000000	        0.0000000000	       -0.9030000000	       27.4884844288	        3.5766109030	       17.7672904131	        0.0000000000	        0.0000000000	       -0.0000000000	        0.2000000000	        0.0000000000	       -0.3000000000	       -0.0000000000	       -0.0000000000	        0.0000000000	       -0.0000000000	        0.0000000000	        0.0000000000	        0.2000000000	       -0.0000000000	        0.3030000000	        0.0000000000	       -0.0000000000	        0.0000000000	
